<?xml version="1.0" encoding="iso-8859-1"?>
<!-- Uploaded to: SVG Repo, www.svgrepo.com, Generator: SVG Repo Mixer Tools -->
<svg fill="#000000" height="800px" width="800px" version="1.1" id="Layer_1" xmlns="http://www.w3.org/2000/svg" xmlns:xlink="http://www.w3.org/1999/xlink" 
	 viewBox="0 0 512 512" xml:space="preserve">
<g>
	<g>
		<g>
			<path d="M341.333,0H170.667C108.422,0,55.662,48.008,25.924,119.483c-0.024,0.055-0.044,0.11-0.067,0.165
				C9.392,159.287,0,206.126,0,256c0,139.916,73.871,256,170.667,256h170.667C438.129,512,512,395.916,512,256S438.129,0,341.333,0z
				 M93.998,425.901c-10.808-13.606-20.357-29.992-28.198-48.563l12.383,5.071c4.298,1.76,9.054,2.069,13.544,0.881l93.032-24.628
				c0.002,0.006,0.004,0.013,0.006,0.019c0.437,1.517,0.885,3.026,1.341,4.528c0.213,0.702,0.424,1.405,0.641,2.103
				c0.577,1.856,1.169,3.699,1.775,5.531c0.097,0.294,0.189,0.592,0.287,0.885c0.707,2.115,1.435,4.211,2.18,6.292
				c0.215,0.6,0.437,1.194,0.655,1.791c0.546,1.499,1.1,2.99,1.666,4.471c0.268,0.702,0.539,1.401,0.811,2.098
				c0.561,1.436,1.132,2.862,1.711,4.281c0.255,0.624,0.506,1.25,0.764,1.871c0.825,1.983,1.663,3.953,2.524,5.9
				c0.007,0.017,0.014,0.034,0.022,0.05c0.392,0.886,0.798,1.758,1.197,2.637L93.998,425.901z M86.884,95.721l26.031,26.031
				c5.044,5.044,12.276,7.233,19.27,5.834l66.641-13.333c-0.757,1.725-1.5,3.464-2.23,5.217c-0.257,0.619-0.508,1.244-0.762,1.866
				c-0.58,1.42-1.151,2.847-1.713,4.285c-0.272,0.697-0.542,1.394-0.81,2.095c-0.566,1.482-1.121,2.975-1.668,4.476
				c-0.217,0.596-0.439,1.188-0.653,1.787c-0.745,2.082-1.474,4.179-2.18,6.295c-0.097,0.291-0.189,0.588-0.286,0.88
				c-0.607,1.833-1.199,3.678-1.777,5.536c-0.217,0.698-0.428,1.401-0.641,2.103c-0.39,1.283-0.776,2.57-1.152,3.864l-71.184,15.9
				l-42.982-44.961C75.653,113.511,81.05,104.189,86.884,95.721z M91.251,206.742c5.164,5.402,12.778,7.707,20.071,6.078
				l63.59-14.204c-0.029,0.193-0.054,0.389-0.083,0.582c-0.091,0.613-0.173,1.231-0.262,1.845c-0.255,1.774-0.5,3.553-0.731,5.34
				c-0.105,0.813-0.205,1.629-0.305,2.445c-0.204,1.668-0.397,3.342-0.58,5.02c-0.085,0.784-0.173,1.566-0.254,2.351
				c-0.215,2.092-0.412,4.191-0.594,6.298c-0.029,0.335-0.064,0.668-0.091,1.003c-0.203,2.436-0.379,4.883-0.537,7.338
				c-0.039,0.614-0.072,1.231-0.108,1.846l-79.293,20.822l-45.743-47.848c1.935-13.073,4.598-25.655,7.914-37.626L91.251,206.742z
				 M69.917,292.075c5.359,5.606,13.338,7.862,20.839,5.892l80.469-21.131c0.039,0.73,0.084,1.457,0.126,2.186
				c0.042,0.713,0.078,1.428,0.124,2.139c0.158,2.455,0.334,4.902,0.537,7.338c0.028,0.336,0.063,0.668,0.091,1.003
				c0.181,2.107,0.379,4.207,0.594,6.298c0.081,0.786,0.169,1.568,0.254,2.352c0.183,1.678,0.375,3.352,0.58,5.019
				c0.1,0.816,0.2,1.632,0.305,2.446c0.231,1.786,0.476,3.565,0.731,5.339c0.088,0.615,0.171,1.233,0.262,1.846
				c0.208,1.399,0.432,2.789,0.655,4.179l-87.756,23.232l-38.167-15.629c-3.978-19.166-6.341-39.608-6.801-60.915L69.917,292.075z
				 M246.221,42.667c-0.195,0.195-0.383,0.401-0.577,0.597c-0.983,0.993-1.957,2.003-2.925,3.025
				c-0.33,0.348-0.664,0.689-0.992,1.041c-1.279,1.372-2.546,2.769-3.797,4.192c-0.268,0.305-0.53,0.619-0.796,0.926
				c-0.987,1.137-1.967,2.287-2.936,3.455c-0.409,0.492-0.813,0.991-1.218,1.489c-0.844,1.037-1.681,2.085-2.511,3.146
				c-0.397,0.508-0.796,1.014-1.19,1.528c-0.769,1.002-1.53,2.018-2.286,3.04l-91.982,18.404l-19.456-19.456
				c16.897-13.717,35.665-21.385,55.112-21.385H246.221z M246.221,469.333h-75.555c-12.471,0-24.662-3.162-36.261-9.038
				l83.763-19.52c1.263-0.294,2.471-0.701,3.621-1.197c0.183,0.269,0.364,0.54,0.548,0.808c1.122,1.633,2.258,3.245,3.41,4.832
				c0.244,0.336,0.493,0.661,0.738,0.995c0.922,1.255,1.852,2.497,2.792,3.722c0.395,0.515,0.794,1.023,1.193,1.532
				c0.829,1.059,1.664,2.106,2.507,3.141c0.406,0.499,0.812,0.999,1.222,1.493c0.967,1.166,1.945,2.313,2.93,3.448
				c0.268,0.309,0.532,0.626,0.802,0.932c1.251,1.423,2.516,2.818,3.795,4.19c0.33,0.354,0.665,0.696,0.997,1.046
				c0.966,1.02,1.938,2.029,2.919,3.019C245.837,468.931,246.026,469.138,246.221,469.333z M341.333,469.333
				c-68.152,0-128-94.047-128-213.333c0-28.196,3.348-54.979,9.355-79.446c0.122-0.423,0.228-0.852,0.324-1.284
				c7.517-30.049,19.053-56.558,33.348-77.816c0.536-0.689,1.034-1.407,1.482-2.156c22.783-32.874,52.263-52.631,83.492-52.631
				c68.152,0,128,94.047,128,213.333S409.486,469.333,341.333,469.333z"/>
			<path d="M341.333,85.333C289.26,85.333,256,162.944,256,256s33.26,170.667,85.333,170.667c52.073,0,85.333-77.61,85.333-170.667
				S393.406,85.333,341.333,85.333z M366.981,353.191C358.047,374.037,347.952,384,341.333,384c-6.619,0-16.714-9.963-25.648-30.809
				c-10.713-24.999-17.019-59.788-17.019-97.191s6.306-72.193,17.019-97.191C324.619,137.963,334.715,128,341.333,128
				c6.618,0,16.714,9.963,25.647,30.809C377.694,183.807,384,218.597,384,256S377.694,328.193,366.981,353.191z"/>
		</g>
	</g>
</g>
</svg>